<?xml version="1.0" standalone="no"?>
<!DOCTYPE svg PUBLIC "-//W3C//DTD SVG 20010904//EN"
 "http://www.w3.org/TR/2001/REC-SVG-20010904/DTD/svg10.dtd">
<svg version="1.0" xmlns="http://www.w3.org/2000/svg"
 width="416.000000pt" height="416.000000pt" viewBox="0 0 416.000000 416.000000"
 preserveAspectRatio="xMidYMid meet">

<g transform="translate(0.000000,416.000000) scale(0.100000,-0.100000)"
fill="#000000" stroke="none">
<path d="M1120 2731 c-190 -52 -341 -172 -429 -340 -56 -108 -75 -186 -75
-311 0 -189 62 -339 194 -470 86 -85 155 -130 262 -168 65 -23 88 -26 213 -26
129 -1 146 1 220 27 44 16 106 44 137 63 66 40 183 147 283 259 l69 77 -80 73
-79 73 -117 -123 c-177 -185 -268 -235 -427 -235 -232 0 -415 155 -454 385
-28 165 57 351 204 446 148 95 356 93 503 -6 28 -19 233 -221 456 -450 223
-229 431 -436 463 -460 128 -97 270 -140 441 -132 185 8 312 64 446 197 132
131 194 281 194 470 0 189 -62 339 -194 470 -86 85 -155 130 -262 168 -65 23
-88 26 -213 26 -129 1 -146 -1 -220 -27 -44 -16 -106 -44 -137 -63 -66 -40
-183 -147 -283 -259 l-69 -77 80 -73 79 -73 117 123 c177 185 268 235 427 235
232 0 415 -155 454 -385 28 -165 -57 -351 -204 -446 -148 -95 -356 -93 -503 6
-28 19 -233 221 -456 450 -223 229 -431 436 -463 460 -157 120 -391 167 -577
116z"/>
</g>
</svg>
